<?xml version="1.0" encoding="utf-8"?>
<!-- Generator: Adobe Illustrator 28.0.0, SVG Export Plug-In . SVG Version: 6.00 Build 0)  -->
<svg version="1.1" id="Layer_1" xmlns="http://www.w3.org/2000/svg" xmlns:xlink="http://www.w3.org/1999/xlink" x="0px" y="0px"
	 viewBox="0 0 311.81 311.81" style="enable-background:new 0 0 311.81 311.81;" xml:space="preserve">
<style type="text/css">
	.st0{fill:#5BA0F4;}
	.st1{fill:#73C4FC;}
	.st2{fill:#72C4FC;}
	.st3{fill:#5CA0F4;}
	.st4{fill:#5DA1F4;}
	.st5{fill:#5CA1F4;}
	.st6{fill:#FEFEFE;}
</style>
<g>
	<path class="st0" d="M125.56,303.84c-0.16-0.08-0.3-0.19-0.47-0.23c-0.23-0.05-0.47-0.06-0.71-0.06c-2.07-0.01-4.13-0.29-6.19-0.51
		c-3.05-0.32-6.09-0.8-9.1-1.43c-4.52-0.94-8.96-2.16-13.3-3.74c-8.81-3.2-16.88-7.69-24.17-13.58c-3.04-2.46-5.9-5.12-8.55-8
		c-2.33-2.52-4.55-5.13-6.49-7.98c-0.03-0.04-0.05-0.12-0.03-0.15c0.07-0.13,0.18-0.15,0.31-0.09c0.42,0.22,0.84,0.43,1.25,0.67
		c2.82,1.63,5.74,3.06,8.72,4.37c3.42,1.5,6.94,2.71,10.5,3.81c3.05,0.94,6.16,1.68,9.29,2.31c2.14,0.43,4.3,0.8,6.47,1.06
		c1.64,0.2,3.28,0.5,4.94,0.5c2.64,0.38,5.31,0.33,7.97,0.41c0.41,0.01,0.82,0.09,1.24,0.1c0.77,0.02,1.54,0.05,2.3,0.02
		c0.94-0.03,1.89-0.11,2.83-0.15c2.19-0.08,4.38,0,6.55-0.36c1.78,0.02,3.53-0.31,5.3-0.47c1.82-0.17,3.64-0.45,5.44-0.74
		c1.75-0.28,3.49-0.63,5.23-0.95c3.43-0.63,6.82-1.46,10.19-2.35c6.01-1.6,11.88-3.61,17.63-5.94c4.66-1.89,9.23-3.99,13.67-6.35
		c4.49-2.39,8.9-4.92,13.13-7.75c0.29-0.19,0.64-0.33,0.71-0.73c0.05-0.06,0.1-0.12,0.15-0.19c0.19-0.15,0.4-0.27,0.61-0.4
		c4.24-3.32,8.7-6.35,12.85-9.78c6.76-5.59,12.96-11.75,18.88-18.22c7.95-8.68,14.69-18.23,20.77-28.27
		c2.11-3.49,4.07-7.08,5.85-10.75c0.38-0.79,0.7-1.65,1.62-2.03c0.16-0.38,0.29-0.77,0.47-1.14c4.16-8.52,7.54-17.35,10.31-26.41
		c1.68-5.48,3.1-11.03,4.24-16.66c0.67-3.3,1.28-6.61,1.78-9.94c0.25-1.69,0.53-3.38,0.7-5.09c0.14-1.47,0.37-2.93,0.55-4.39
		c0.04-0.35,0.05-0.71,0.08-1.06c0.07-0.94,0.07-1.89,0.27-2.82c0.08-0.4,0.05-0.82,0.08-1.24c0.09-1.42,0.03-2.84,0.29-4.25
		c0.05-0.29,0.03-0.59,0.04-0.89c0.12-4.91,0.18-9.82-0.02-14.73c-0.08-2.01-0.19-4.02-0.38-6.02c-0.1-1-0.18-2-0.29-3
		c-0.15-1.41-0.36-2.81-0.55-4.21c-0.14-0.99-0.31-1.99-0.42-2.98c-0.27-2.35-0.8-4.66-1.27-6.97c-1-4.87-2.38-9.64-3.96-14.35
		c-0.03-0.08,0.05-0.2,0.08-0.3c0.05,0.03,0.11,0.05,0.16,0.08c0.05,0.03,0.09,0.07,0.13,0.12c1.55,1.79,3.04,3.63,4.44,5.53
		c3.59,4.88,6.65,10.07,9.19,15.56c2.04,4.4,3.74,8.94,5.16,13.59c1.4,4.59,2.48,9.25,3.33,13.96c0.37,2.03,0.7,4.08,0.88,6.14
		c0.14,1.53,0.38,3.05,0.56,4.57c0.04,0.35,0.04,0.71,0.06,1.06c0.08,1.18,0.06,2.37,0.28,3.54c0.08,0.4,0.05,0.83,0.06,1.24
		c0.16,5.38,0.14,10.77-0.01,16.15c-0.26,2.23-0.21,4.49-0.55,6.71c-0.03,0.18-0.04,0.35-0.05,0.53c-0.09,2.13-0.44,4.23-0.67,6.34
		c-0.23,2.06-0.55,4.1-0.86,6.14c-0.31,2.04-0.69,4.08-1.09,6.1c-0.81,4.06-1.71,8.09-2.8,12.09c-1.45,5.37-3.13,10.66-5.06,15.88
		c-1.27,3.44-2.65,6.84-4.11,10.2c-1.53,3.53-3.23,6.98-4.99,10.4c-2.23,4.31-4.64,8.52-7.22,12.63c-2.61,4.16-5.39,8.21-8.36,12.13
		c-2.32,3.07-4.73,6.06-7.24,8.98c-3.4,3.95-6.98,7.73-10.74,11.34c-5.9,5.67-12.18,10.87-18.86,15.6
		c-3.96,2.81-8.06,5.41-12.25,7.86c-2.96,1.73-6.03,3.28-9.1,4.82c-7.06,3.52-14.38,6.38-21.91,8.7c-4.8,1.48-9.67,2.72-14.62,3.66
		c-2.38,0.45-4.77,0.84-7.16,1.26c-1.34,0.23-2.7,0.33-4.05,0.48c-1.7,0.19-3.4,0.4-5.11,0.56c-1.12,0.1-2.25,0.13-3.37,0.19
		c-0.3,0.02-0.59,0.05-0.81,0.29C132.67,303.84,129.11,303.84,125.56,303.84z"/>
	<path class="st1" d="M173.89,7.97c0.22,0.23,0.51,0.28,0.81,0.28c1.36,0.03,2.72,0.05,4.08,0.09c0.71,0.02,1.42,0,2.11,0.21
		c0.17,0.05,0.35,0.07,0.53,0.07c1.66-0.05,3.29,0.32,4.94,0.45c0.88,0.07,1.76,0.22,2.63,0.37c5.01,0.85,9.95,2.01,14.78,3.64
		c4.84,1.63,9.46,3.73,13.93,6.17c2.7,1.48,5.23,3.23,7.75,4.99c0.29,0.2,0.58,0.42,0.67,0.79c0,0,0.02-0.02,0.02-0.02
		c-0.22-0.06-0.47-0.08-0.67-0.19c-1.17-0.69-2.32-1.42-3.5-2.1c-2.71-1.58-5.53-2.95-8.4-4.22c-2.55-1.13-5.15-2.09-7.8-2.92
		c-3.5-1.1-7.05-1.99-10.65-2.68c-1.92-0.37-3.86-0.56-5.77-0.94c-0.29-0.06-0.59-0.05-0.88-0.07c-0.35-0.02-0.72,0-1.06-0.07
		c-1.4-0.3-2.82-0.3-4.24-0.34c-0.18-0.01-0.36,0.01-0.53-0.03c-1.34-0.32-2.71-0.24-4.07-0.25c-2.13-0.02-4.26-0.01-6.39,0.01
		c-1.12,0.01-2.24,0.01-3.36,0.21c-0.75,0.14-1.53,0.08-2.3,0.12c-0.71,0.03-1.42,0-2.11,0.22c-0.11,0.04-0.23,0.06-0.35,0.05
		c-1.55-0.02-3.06,0.3-4.59,0.45c-1.17,0.12-2.34,0.28-3.51,0.48c-1.63,0.27-3.25,0.59-4.88,0.89c-3.6,0.67-7.17,1.51-10.7,2.49
		c-2.79,0.77-5.57,1.58-8.3,2.55c-2.84,1-5.67,2.06-8.46,3.2c-2.9,1.19-5.74,2.52-8.58,3.85c-2.62,1.24-5.14,2.67-7.68,4.08
		c-2.12,1.18-4.21,2.42-6.25,3.72c-4.1,2.6-8.1,5.34-11.94,8.32c-2.33,1.81-4.64,3.66-6.88,5.6c-3.99,3.45-7.82,7.05-11.46,10.87
		c-1.67,1.75-3.28,3.57-4.89,5.38c-1.61,1.82-3.15,3.69-4.68,5.57c-1.34,1.65-2.61,3.36-3.9,5.06c-2.57,3.4-4.93,6.94-7.22,10.54
		c-1.65,2.59-3.21,5.24-4.71,7.93c-2,3.56-3.82,7.21-5.58,10.9c-1.94,4.05-3.68,8.2-5.27,12.4c-1.23,3.26-2.32,6.58-3.4,9.89
		c-1.17,3.6-2.09,7.26-3,10.93c-0.75,3.04-1.38,6.1-1.99,9.17c-0.35,1.73-0.52,3.5-0.86,5.24c-0.27,1.34-0.24,2.71-0.6,4.03
		c-0.03,0.11-0.04,0.23-0.05,0.35c-0.05,0.94-0.1,1.89-0.35,2.81c-0.01,1.84-0.49,3.63-0.44,5.48c0.01,0.18,0.01,0.36-0.02,0.53
		c-0.4,2.11-0.27,4.24-0.35,6.37c-0.02,0.71-0.01,1.42-0.16,2.12c-0.08,0.34-0.07,0.71-0.07,1.06c-0.01,1.66,0,3.31,0,4.97
		c0,0.18-0.02,0.36,0.02,0.53c0.34,1.82,0.19,3.66,0.28,5.49c0.05,0.88,0,1.77,0.24,2.65c0.08,0.28,0.06,0.59,0.07,0.88
		c0.05,1.06,0.02,2.13,0.31,3.17c0.03,0.11,0.03,0.23,0.03,0.35c0.08,1.77,0.43,3.51,0.67,5.27c0.32,2.28,0.75,4.54,1.21,6.8
		c0.43,2.08,0.98,4.14,1.53,6.19c0.65,2.4,1.39,4.76,2.24,7.1c0.87,2.39,1.76,4.77,2.82,7.08c0.72,1.56,1.41,3.13,2.2,4.65
		c2.22,4.26,4.73,8.33,7.63,12.16c1.71,2.27,3.48,4.48,5.46,6.53c0.16,0.17,0.28,0.38,0.41,0.57l0.02-0.02
		c-0.22-0.08-0.5-0.09-0.65-0.24c-1.06-1.03-2.1-2.08-3.14-3.14c-0.45-0.47-0.85-0.98-1.3-1.46c-1.74-1.86-3.3-3.87-4.82-5.91
		c-1.49-1.99-2.84-4.07-4.13-6.2c-2-3.29-3.77-6.7-5.31-10.22c-0.9-2.06-1.76-4.13-2.52-6.25c-1.45-4-2.64-8.09-3.59-12.23
		c-0.46-2.01-0.83-4.05-1.21-6.08c-0.33-1.74-0.56-3.49-0.79-5.25c-0.12-0.94-0.18-1.88-0.33-2.81c-0.24-1.47-0.18-2.95-0.39-4.41
		c-0.31-2.18-0.29-4.37-0.3-6.55c-0.02-4.08,0.03-8.17,0.06-12.25c0-0.71-0.01-1.42,0.19-2.12c0.05-0.17,0.06-0.35,0.07-0.53
		c0.04-0.89,0.04-1.78,0.11-2.66c0.06-0.82,0.22-1.64,0.28-2.46c0.07-0.94,0.12-1.88,0.31-2.82c0.17-0.86,0.05-1.77,0.33-2.63
		c0.05-0.17,0.05-0.35,0.07-0.53c0.19-2.24,0.67-4.43,1-6.65c0.33-2.22,0.8-4.41,1.25-6.61c0.53-2.6,1.17-5.18,1.84-7.75
		c1.37-5.32,3.04-10.56,4.91-15.73c1.35-3.72,2.86-7.38,4.47-11c1.88-4.22,3.95-8.34,6.11-12.41c1.3-2.45,2.74-4.84,4.16-7.22
		c1.12-1.88,2.3-3.72,3.5-5.55c1.04-1.58,2.12-3.14,3.22-4.68c1.2-1.68,2.42-3.36,3.69-4.99c1.85-2.38,3.7-4.77,5.7-7.02
		c1.3-1.46,2.56-2.94,3.85-4.41c0.23-0.27,0.48-0.52,0.73-0.77c2.08-2.1,4.17-4.2,6.24-6.31c1.78-1.82,3.7-3.49,5.61-5.17
		c4.01-3.5,8.16-6.83,12.52-9.9c3.87-2.73,7.84-5.29,11.92-7.7c4.18-2.47,8.5-4.68,12.91-6.72c5.21-2.41,10.56-4.48,16.02-6.24
		c2.87-0.92,5.76-1.77,8.69-2.5c3.32-0.83,6.67-1.54,10.04-2.16c1.1-0.2,2.22-0.31,3.33-0.48c1.17-0.17,2.33-0.36,3.5-0.54
		c0.18-0.03,0.35-0.07,0.52-0.09c1.06-0.08,2.13-0.07,3.17-0.35c2.43-0.03,4.82-0.5,7.26-0.44c0.83,0.02,1.66-0.03,2.49-0.05
		c0.25-0.01,0.46-0.1,0.63-0.27C171.75,7.97,172.82,7.97,173.89,7.97z"/>
	<path class="st2" d="M250.97,185.88c-1.05,1.65-1.82,3.44-2.72,5.16c-0.44,0.84-0.78,1.72-1.38,2.47
		c-0.14,0.18-0.22,0.41-0.34,0.62c-0.76,1.4-1.5,2.81-2.29,4.19c-0.56,0.97-1.18,1.9-1.77,2.86c-2.1,3.42-4.36,6.73-6.61,10.05
		c-0.53,0.78-1.09,1.53-1.65,2.29c-0.94,1.28-1.86,2.58-2.86,3.81c-0.67,0.82-1.18,1.77-1.99,2.48c-0.61,1.17-1.77,1.9-2.4,3.05
		c-0.14,0.25-0.39,0.44-0.6,0.65c-0.2,0.21-0.46,0.4-0.61,0.64c-0.64,1.09-1.6,1.89-2.46,2.78c-0.16,0.17-0.37,0.32-0.47,0.52
		c-0.49,0.9-1.26,1.56-1.97,2.27c-3.18,3.18-6.36,6.36-9.54,9.54c-0.54,0.54-1.06,1.11-1.74,1.5c-0.35,0.2-0.62,0.54-0.92,0.82
		c-0.64,0.61-1.21,1.29-2.01,1.72c-0.3,0.16-0.53,0.47-0.78,0.72c-0.51,0.49-1.02,0.96-1.62,1.37c-0.72,0.5-1.4,1.08-2.07,1.65
		c-1.35,1.14-2.81,2.14-4.2,3.22c-1.82,1.41-3.7,2.72-5.57,4.06c-0.33,0.24-0.59,0.58-0.92,0.84c-0.18,0.14-0.41,0.2-0.62,0.3
		c-0.23-0.13-0.43-0.11-0.61,0.09c0,0,0.02-0.02,0.02-0.02c-0.35,0.06-0.7,0.09-1.04,0.19c-1.07,0.34-2.13,0.72-3.2,1.06
		c-3.88,1.25-7.82,2.31-11.83,3.05c-2.26,0.42-4.53,0.82-6.82,1.11c-1.06,0.14-2.12,0.18-3.17,0.34c-1.76,0.28-3.55,0.17-5.3,0.38
		c-2.54,0.29-5.08,0.19-7.62,0.21c-0.71,0.01-1.41-0.02-2.12-0.15c-0.58-0.11-1.18-0.08-1.77-0.11c-1.42-0.07-2.84,0.01-4.24-0.33
		c-0.17-0.04-0.35-0.03-0.53-0.04c-1.66-0.06-3.28-0.4-4.92-0.62c-1.52-0.2-3.03-0.5-4.54-0.77c-2.39-0.43-4.74-0.99-7.08-1.62
		c-3.08-0.83-6.12-1.82-9.12-2.91c-1.89-0.69-3.74-1.46-5.6-2.24c-2.29-0.97-4.52-2.07-6.72-3.22c-4.83-2.53-9.45-5.39-13.84-8.64
		c-2.24-1.66-4.42-3.38-6.52-5.2c-2.63-2.29-5.22-4.64-7.58-7.22c-2.23-2.44-4.46-4.9-6.49-7.52c-2.51-3.23-4.81-6.6-6.97-10.06
		c-2.45-3.92-4.52-8.05-6.44-12.24c-1.35-2.95-2.5-6-3.55-9.08c-1.32-3.86-2.39-7.8-3.25-11.78c-0.51-2.36-1.02-4.73-1.22-7.15
		c-0.42-1.43-0.25-2.94-0.59-4.39c-0.13-0.57-0.07-1.18-0.11-1.77c-0.05-0.59-0.12-1.17-0.18-1.76c-0.04-0.35-0.09-0.7-0.1-1.06
		c-0.1-3.91-0.16-7.81,0.02-11.72c0.07-1.65,0.2-3.3,0.37-4.95c0.18-1.76,0.4-3.52,0.67-5.27c0.32-2.04,0.68-4.08,1.11-6.1
		c0.96-4.51,2.18-8.95,3.75-13.29c1.26-3.51,2.65-6.96,4.28-10.32c2.35-4.86,5-9.54,8.05-13.98c1.71-2.49,3.52-4.89,5.42-7.25
		c3.53-4.4,7.52-8.35,11.65-12.18c2.52-2.33,5.23-4.44,8-6.47c3.3-2.42,6.72-4.65,10.27-6.66c2.06-1.16,4.15-2.27,6.3-3.27
		c2.36-1.11,4.72-2.21,7.14-3.14c3.2-1.24,6.42-2.4,9.75-3.27c1.49-0.39,2.96-0.83,4.46-1.17c2.19-0.5,4.37-0.98,6.59-1.36
		c2.04-0.34,4.1-0.54,6.13-0.92c0.52-0.1,1.06-0.07,1.59-0.1c0.65-0.03,1.3-0.05,1.94-0.19c0.46-0.1,0.94-0.11,1.41-0.11
		c2.31-0.04,4.62-0.1,6.93-0.1c34.58-0.01,69.16,0,103.74,0c0.47,0,0.95,0,1.42,0.02c0.51,0.02,0.72,0.25,0.75,0.78
		c0.01,0.35,0.02,0.71,0.02,1.06c0,8.11,0,16.22,0,24.32c0,0.41-0.04,0.83-0.06,1.24c-0.94,0.75-2.05,0.47-3.08,0.47
		c-34.58,0.01-69.15,0-103.73,0.02c-15.94,0.01-30.5,4.65-43.47,13.8c-18.22,12.85-29.34,30.41-32.61,52.47
		c-3.4,22.94,2.46,43.62,17.28,61.46c13.09,15.74,30.05,24.89,50.39,27.39c14.41,1.77,28.37-0.23,41.57-6.43
		c22.28-10.46,36.68-27.64,43.24-51.34c1.34-4.85,1.94-9.83,2.31-14.88c0.68-9.28-0.6-18.28-3.12-27.16
		c-0.89-3.14-0.92-3.13-4.1-3.13c-7.1,0-14.21,0-21.31,0c-1.13,0-2.25,0.04-3.36,0.19c-0.08-0.08-0.18-0.16-0.24-0.26
		c-0.17-0.31-0.04-0.67,0.25-0.69c0.35-0.03,0.71-0.05,1.06-0.05c8.7,0,17.4-0.01,26.1,0c7.16,0,14.32,0.02,21.49,0.03
		c0.53,0,1.07,0,1.6,0.03c0.56,0.03,0.83,0.32,0.85,0.92c0.02,0.59,0.01,1.18,0.01,1.77c0,17.04,0,34.08,0,51.12
		c0,0.65,0.01,1.3,0.02,1.95C250.63,185.55,250.75,185.75,250.97,185.88z"/>
	<path class="st0" d="M199.48,130.48c0.06-0.39,0.25-0.66,0.68-0.67c0.36-0.01,0.71-0.02,1.07-0.02c8.17,0,16.34,0,24.52,0
		c0.41,0,0.83,0,1.24,0.03c0.38,0.03,0.7,0.22,0.82,0.59c0.39,1.24,0.9,2.44,1.17,3.71c0.21,0.98,0.58,1.92,0.81,2.89
		c0.3,1.26,0.43,2.56,0.89,3.77c-0.05,1.02,0.42,1.96,0.42,2.97c0,0.18-0.02,0.37,0.05,0.53c0.35,0.79,0.28,1.62,0.31,2.45
		c0.01,0.18,0,0.37,0.07,0.52c0.36,0.79,0.26,1.62,0.27,2.45c0.01,0.53,0,1.07,0.01,1.6c0.01,0.29-0.03,0.62,0.08,0.88
		c0.32,0.8,0.27,1.63,0.27,2.45c0,0.89,0,1.78,0,2.66c0,0.77,0.03,1.53-0.26,2.28c-0.12,0.32-0.08,0.7-0.09,1.05
		c-0.01,0.71-0.01,1.42-0.01,2.13c0,0.53,0.01,1.06-0.2,1.57c-0.07,0.16-0.14,0.35-0.12,0.51c0.14,1.2-0.32,2.33-0.4,3.5
		c-0.04,0.58-0.26,1.15-0.32,1.73c-0.05,0.53-0.16,1.04-0.29,1.56c-0.27,1.08-0.48,2.18-0.74,3.27c-0.69,2.93-1.68,5.77-2.65,8.62
		c-0.38,1.11-0.97,2.15-1.38,3.26c-0.73,1.94-1.76,3.74-2.65,5.61c-0.69,1.44-1.57,2.77-2.37,4.15c-0.83,1.43-1.73,2.82-2.69,4.16
		c-0.99,1.39-1.95,2.81-3.11,4.07c-0.48,0.52-0.73,1.22-1.3,1.67c-0.52,0.41-0.86,0.96-1.22,1.51c-0.19,0.29-0.47,0.53-0.73,0.78
		c-1.67,1.68-3.35,3.35-5.02,5.02c-0.38,0.38-0.74,0.77-1.23,1c-0.16,0.07-0.31,0.19-0.42,0.32c-0.88,1.06-2.1,1.72-3.06,2.68
		c-0.13,0.12-0.27,0.24-0.41,0.34c-2.2,1.49-4.33,3.07-6.58,4.49c-1.05,0.66-2.14,1.24-3.22,1.85c-0.62,0.35-1.25,0.67-1.85,1.05
		c-0.8,0.5-1.68,0.85-2.54,1.26c-0.37,0.18-0.79,0.27-1.14,0.48c-1.13,0.65-2.37,1.06-3.57,1.56c-1.69,0.71-3.43,1.27-5.16,1.86
		c-1.73,0.59-3.51,1.02-5.28,1.45c-1.37,0.33-2.75,0.65-4.13,0.95c-0.4,0.09-0.83,0.04-1.23,0.14c-0.86,0.23-1.73,0.38-2.62,0.36
		c-1.02,0.43-2.09,0.31-3.15,0.34c-0.24,0.01-0.49,0-0.7,0.09c-0.68,0.29-1.39,0.26-2.1,0.26c-3.08,0-6.16,0-9.24,0
		c-0.65,0-1.29,0-1.93-0.22c-0.38-0.13-0.81-0.11-1.23-0.12c-0.82-0.03-1.65,0.05-2.45-0.28c-0.26-0.11-0.58-0.07-0.88-0.08
		c-0.48-0.01-0.94-0.02-1.39-0.22c-0.16-0.07-0.34-0.11-0.52-0.12c-1.42-0.06-2.78-0.48-4.16-0.76c-1.1-0.23-2.18-0.52-3.26-0.81
		c-3.13-0.85-6.21-1.89-9.2-3.15c-1.96-0.82-3.94-1.59-5.83-2.58c-1.46-0.77-2.87-1.63-4.31-2.45c-2.11-1.2-4.07-2.62-6.09-3.95
		c-0.5-0.33-0.92-0.74-1.42-1.06c-0.5-0.32-0.97-0.67-1.38-1.1c-0.49-0.51-1.21-0.74-1.67-1.31c-0.41-0.51-0.95-0.88-1.51-1.22
		c-0.25-0.15-0.44-0.39-0.65-0.6c-1.97-1.97-3.94-3.93-5.9-5.9c-0.33-0.33-0.61-0.72-0.91-1.08c-0.19-0.23-0.33-0.5-0.55-0.69
		c-0.86-0.74-1.4-1.75-2.13-2.6c-0.54-0.62-0.93-1.37-1.44-2.01c-1.64-2.03-2.91-4.29-4.28-6.5c-1.5-2.42-2.64-5.02-3.93-7.55
		c-0.43-0.84-0.75-1.73-1.1-2.61c-0.81-2.03-1.45-4.12-2.18-6.18c-0.73-2.06-1.13-4.21-1.71-6.31c-0.17-0.61-0.25-1.27-0.38-1.9
		c-0.12-0.58-0.18-1.16-0.35-1.73c-0.08-0.28-0.08-0.59-0.05-0.88c0.07-0.68-0.31-1.26-0.35-1.91c-0.04-0.59,0.06-1.22-0.11-1.76
		c-0.26-0.82-0.25-1.63-0.26-2.45c-0.01-0.82,0.05-1.65-0.26-2.45c-0.12-0.32-0.09-0.7-0.09-1.05c-0.01-1.83-0.01-3.67,0-5.5
		c0-0.35-0.02-0.73,0.1-1.05c0.26-0.69,0.23-1.39,0.25-2.1c0.02-0.94-0.09-1.89,0.28-2.81c0.11-0.26,0.06-0.58,0.07-0.88
		c0.02-0.77-0.06-1.54,0.29-2.27c0.02-0.83,0.25-1.63,0.39-2.44c0.32-1.92,0.79-3.8,1.25-5.68c0.63-2.58,1.63-5.05,2.4-7.59
		c0.92-2.04,1.61-4.19,2.7-6.16c0.48-0.88,0.91-1.79,1.35-2.7c1.03-2.13,2.22-4.17,3.57-6.11c0.6-0.87,1.13-1.8,1.75-2.66
		c0.83-1.14,1.57-2.36,2.58-3.36c0.63-1.15,1.76-1.9,2.41-3.05c0.17-0.3,0.47-0.53,0.72-0.78c2.05-2.05,4.1-4.1,6.16-6.15
		c0.38-0.38,0.74-0.76,1.24-1c0.16-0.07,0.3-0.19,0.42-0.32c0.98-1.04,2.2-1.77,3.31-2.65c1.67-1.33,3.41-2.53,5.19-3.68
		c0.99-0.64,2.04-1.19,3.05-1.8c1.77-1.08,3.6-2.03,5.48-2.9c2.04-0.94,4.09-1.84,6.21-2.59c0.56-0.2,1.1-0.43,1.65-0.63
		c0.5-0.19,0.99-0.41,1.5-0.54c1.6-0.4,3.18-0.89,4.77-1.33c0.79-0.22,1.59-0.42,2.41-0.55c1.33-0.21,2.64-0.6,3.99-0.75
		c0.61-0.3,1.26-0.28,1.91-0.28c0.24,0,0.49,0.03,0.7-0.05c0.91-0.35,1.86-0.29,2.8-0.31c0.23-0.01,0.49-0.02,0.7-0.11
		c0.62-0.26,1.28-0.23,1.93-0.23c1.89,0,3.79,0,5.68,0c34.35,0,68.69,0,103.04,0c0.71,0,1.42,0.01,2.13,0.01
		c0.19,2.09-0.2,4.13-0.68,6.14c-0.92,3.8-2.65,7.2-5.11,10.23c-3.18,3.93-7.22,6.62-11.96,8.26c-1.28,0.44-2.61,0.73-3.96,0.97
		c-1.76,0.32-3.53,0.34-5.31,0.34c-25.4,0-50.8,0-76.2,0c-0.83,0-1.66,0.03-2.49,0c-2.2-0.09-4.38,0.13-6.55,0.4
		c-5.13,0.65-10.08,1.99-14.82,4.1c-3.7,1.65-7.16,3.67-10.37,6.12c-4.22,3.21-7.89,6.96-11,11.26c-3.75,5.19-6.39,10.91-8.08,17.07
		c-0.58,2.11-0.96,4.26-1.26,6.43c-0.56,4.07-0.46,8.15-0.23,12.22c0.1,1.7,0.41,3.4,0.76,5.08c0.57,2.78,1.33,5.52,2.35,8.17
		c1.62,4.22,3.69,8.19,6.32,11.87c1.83,2.56,3.84,4.96,6.1,7.15c3.04,2.93,6.35,5.49,9.99,7.64c3.43,2.03,7.04,3.64,10.83,4.84
		c2.43,0.76,4.9,1.32,7.41,1.76c3.99,0.68,8.01,0.81,12.03,0.57c2.47-0.15,4.94-0.5,7.37-1.04c4.71-1.04,9.21-2.64,13.46-4.91
		c3.72-1.99,7.17-4.37,10.33-7.17c3.52-3.12,6.55-6.66,9.12-10.59c3.33-5.1,5.68-10.63,7.1-16.55c0.42-1.78,0.69-3.59,0.95-5.41
		c0.53-3.84,0.46-7.68,0.2-11.51c-0.19-2.83-0.74-5.62-1.48-8.37c-0.95-3.55-2.21-6.99-3.89-10.26
		C200.1,131.76,199.79,131.12,199.48,130.48z"/>
	<path class="st0" d="M153.96,138.26c-0.53,0-1.06-0.01-1.6,0c-0.36,0.01-0.7,0.13-0.96,0.39c-1.18,1.17-2.36,2.33-3.52,3.51
		c-0.43,0.44-0.65,0.98-0.61,1.61c0.03,0.41,0.04,0.83,0.04,1.24c0.01,1.8-0.94,3-2.48,3.78c-0.63,0.32-1.33,0.48-2.06,0.47
		c-0.47-0.01-0.95-0.02-1.42,0c-0.36,0.01-0.7,0.13-0.96,0.39c-1.18,1.17-2.36,2.33-3.52,3.51c-0.43,0.44-0.63,0.98-0.61,1.61
		c0.02,0.83,0.01,1.66,0,2.48c-0.01,0.5,0.12,0.95,0.47,1.3c1.21,1.22,2.42,2.44,3.64,3.64c0.39,0.38,0.9,0.57,1.45,0.57
		c0.53,0,1.07-0.01,1.6-0.01c1.98-0.03,3.93,1.99,3.89,3.88c-0.01,0.53-0.02,1.07-0.05,1.6c-0.03,0.5,0.1,0.95,0.45,1.31
		c1.2,1.22,2.41,2.45,3.64,3.64c0.49,0.47,1.1,0.7,1.8,0.51c0.65-0.18,1.28-0.17,1.93,0c0.56,0.15,1.04-0.08,1.49-0.39
		c0.15-0.1,0.27-0.23,0.39-0.36c1.05-1.05,2.09-2.1,3.14-3.14c0.5-0.49,0.73-1.06,0.67-1.75c-0.04-0.41-0.07-0.83-0.05-1.24
		c0.06-1.85,1-3.11,2.65-3.87c2.2-1.01,4.44,0.23,5.41,1.78c0.81,1.3,0.81,3.77-0.54,5.12c-1.13,1.13-2.43,1.7-4.01,1.38
		c-0.86-0.17-1.5,0.06-2.08,0.64c-1.09,1.09-2.17,2.18-3.27,3.26c-0.45,0.45-0.66,0.96-0.62,1.59c0.03,0.47,0.05,0.95,0.05,1.42
		c0,1.73-0.93,2.92-2.37,3.68c-2.79,1.49-6.25-0.76-6.23-3.79c0-0.53,0.04-1.06,0.05-1.6c0.01-0.43-0.13-0.82-0.44-1.13
		c-1.21-1.22-2.41-2.44-3.64-3.64c-0.4-0.39-0.89-0.56-1.47-0.44c-0.82,0.18-1.64,0.19-2.45-0.07c-1.85-0.6-3.04-2.18-3.05-4.12
		c0-0.53,0.04-1.06,0.04-1.6c0.01-0.43-0.13-0.82-0.44-1.13c-1.21-1.22-2.42-2.44-3.64-3.64c-0.44-0.43-1.01-0.61-1.64-0.49
		c-0.17,0.03-0.35,0.08-0.52,0.1c-2.63,0.3-5.24-2.03-4.77-5.02c0.23-1.48,1.07-2.63,2.47-3.25c0.81-0.37,1.67-0.6,2.58-0.33
		c0.82,0.25,1.52-0.03,2.1-0.61c1.13-1.13,2.26-2.26,3.39-3.39c0.31-0.31,0.46-0.69,0.45-1.12c-0.01-0.59-0.06-1.18-0.04-1.77
		c0.07-1.67,0.85-2.92,2.32-3.73c0.91-0.51,1.89-0.73,2.91-0.42c0.79,0.24,1.4,0.01,1.94-0.52c1.14-1.12,2.26-2.26,3.39-3.39
		c0.36-0.36,0.51-0.79,0.49-1.29c-0.01-0.53-0.07-1.07-0.05-1.6c0.06-1.68,0.87-2.91,2.33-3.72c0.3-0.17,0.66-0.27,1-0.33
		c0.41-0.07,0.82-0.06,1.24-0.08c1.89-0.05,3.34,1.39,3.81,2.7c0.14,0.38,0.2,0.81,0.21,1.21c0.02,0.59-0.02,1.18-0.04,1.77
		c-0.02,0.44,0.14,0.82,0.43,1.13c0.48,0.52,0.99,1.02,1.49,1.52c0.71,0.71,1.42,1.42,2.14,2.13c0.5,0.49,1.1,0.73,1.78,0.52
		c0.85-0.26,1.65-0.1,2.43,0.19c1.23,0.46,2.14,1.31,2.56,2.55c0.52,1.52,0.29,3.47-1.16,4.71c-0.85,0.73-1.78,1.13-2.9,1.16
		c-2.37,0.06-4.47-2.18-4.33-4.26c0.03-0.53,0.04-1.06,0.06-1.6c0.01-0.44-0.14-0.82-0.44-1.13c-1.21-1.22-2.42-2.43-3.64-3.64
		c-0.31-0.31-0.7-0.43-1.13-0.43C155.02,138.24,154.49,138.25,153.96,138.26C153.96,138.25,153.96,138.25,153.96,138.26z"/>
	<path class="st3" d="M180.33,156.08c0.14,2.04-1.95,4.26-4.35,4.22c-2.25-0.03-4.39-2.1-4.27-4.51c0.12-2.34,1.97-4.25,4.38-4.22
		C178.46,151.61,180.53,153.61,180.33,156.08z"/>
	<path class="st3" d="M158.32,155.92c0.13,2.52-2.04,4.4-4.35,4.38c-2.31-0.02-4.25-2-4.26-4.34c-0.01-2.34,1.89-4.39,4.21-4.39
		C156.39,151.57,158.48,153.57,158.32,155.92z"/>
	<path class="st4" d="M134.07,140.07c-1.6,0.08-3.17-1.51-3.16-3.16c0-1.31,1.12-3.14,3.19-3.14c1.75,0.01,3.08,1.35,3.15,3.17
		C137.31,138.56,135.7,140.17,134.07,140.07z"/>
	<path class="st5" d="M134.11,172.77c1.62-0.08,3.2,1.51,3.14,3.15c-0.06,1.71-1.53,3.18-3.18,3.16c-1.68-0.02-3.1-1.49-3.14-3.2
		C130.89,174.28,132.44,172.67,134.11,172.77z"/>
	<path class="st5" d="M169.95,136.86c-0.08-1.49,1.42-3.17,3.17-3.11c1.68,0.06,3.22,1.6,3.1,3.22c-0.13,1.67-1.18,3.04-3.2,3.1
		C171.52,140.11,169.85,138.63,169.95,136.86z"/>
	<path class="st5" d="M173.29,172.77c1.58,0.08,3.1,1.67,2.95,3.16c-0.18,1.93-1.55,3.11-3.22,3.11c-1.87,0-3.19-1.64-3.08-3.37
		C170.06,174,171.53,172.69,173.29,172.77z"/>
	<path class="st4" d="M190.68,155.92c0,1.48-1.12,2.62-2.56,2.59c-1.3-0.03-2.45-1.22-2.47-2.55c-0.02-1.26,0.92-2.53,2.6-2.59
		C189.24,153.34,190.77,154.29,190.68,155.92z"/>
	<path class="st4" d="M156.53,121.88c0.09,1.55-1.54,2.55-2.48,2.48c-1.78-0.13-2.58-1.49-2.54-2.65c0.05-1.33,1.22-2.5,2.52-2.5
		C155.41,119.22,156.55,120.43,156.53,121.88z"/>
	<path class="st4" d="M122.39,155.89c0.01,1.43-1.16,2.65-2.54,2.62c-1.32-0.02-2.45-1.18-2.49-2.51c-0.04-1.25,0.91-2.63,2.56-2.6
		C121.37,153.42,122.45,154.59,122.39,155.89z"/>
	<path class="st4" d="M154.1,187.61c1.34-0.1,2.43,1.15,2.45,2.45c0.02,1.41-1.41,2.61-2.4,2.59c-1.44-0.03-2.6-1.12-2.65-2.53
		C151.46,188.86,152.52,187.54,154.1,187.61z"/>
	<path class="st1" d="M226.11,25.03c0.52-0.01,0.84,0.27,1.07,0.71l0.02-0.02c-0.51,0-0.89-0.2-1.07-0.71
		C226.13,25.01,226.11,25.03,226.11,25.03z"/>
	<path class="st1" d="M227.54,26.1c0.3,0,0.56,0.11,0.75,0.35c0.02,0.03,0.03,0.1,0.01,0.13c-0.02,0.03-0.09,0.07-0.13,0.06
		c-0.28-0.1-0.49-0.28-0.61-0.56L227.54,26.1z"/>
	<path class="st1" d="M227.56,26.08c-0.18-0.06-0.32-0.16-0.36-0.36c0,0-0.02,0.02-0.02,0.02c0.18,0.06,0.31,0.17,0.36,0.36
		C227.54,26.1,227.56,26.08,227.56,26.08z"/>
	<path class="st1" d="M48.81,248.77c-0.19-0.05-0.31-0.16-0.35-0.36c0,0-0.02,0.02-0.02,0.02c0.12,0.12,0.24,0.24,0.36,0.35
		L48.81,248.77z"/>
	<path class="st1" d="M49.17,249.13c-0.18-0.05-0.31-0.17-0.36-0.35c0,0-0.02,0.02-0.02,0.01c0.12,0.12,0.24,0.24,0.36,0.35
		C49.15,249.14,49.17,249.13,49.17,249.13z"/>
	<path class="st1" d="M49.52,249.48c-0.12-0.12-0.24-0.24-0.35-0.36c0,0-0.02,0.02-0.02,0.02c0.12,0.12,0.24,0.24,0.35,0.36
		L49.52,249.48z"/>
	<path class="st1" d="M49.51,249.5c0.04,0.03,0.07,0.05,0.11,0.08c-0.03-0.03-0.06-0.06-0.1-0.09
		C49.52,249.48,49.51,249.5,49.51,249.5z"/>
	<path class="st6" d="M190.22,255.55c0.26-0.36,0.32-0.37,0.61-0.09C190.63,255.49,190.43,255.52,190.22,255.55z"/>
</g>
</svg>
